<?xml version="1.0" encoding="utf-8"?>
<!-- Generator: Adobe Illustrator 21.1.0, SVG Export Plug-In . SVG Version: 6.00 Build 0)  -->
<svg version="1.1" xmlns="http://www.w3.org/2000/svg" xmlns:xlink="http://www.w3.org/1999/xlink" x="0px" y="0px"
	 viewBox="0 0 528 154.2" style="enable-background:new 0 0 528 154.2;" xml:space="preserve">
<style type="text/css">
	.st0{fill:url(#SVGID_1_);}
	.st1{fill:#FFFFFF;}
	.st2{display:none;}
	.st3{display:inline;fill:none;stroke:#000000;stroke-miterlimit:10;}
</style>
<g id="Ebene_1">
	
		<radialGradient id="SVGID_1_" cx="109.2838" cy="121.3224" r="31.3059" gradientTransform="matrix(1.4479 0 0 0.2422 -53.1319 100.3462)" gradientUnits="userSpaceOnUse">
		<stop  offset="0" style="stop-color:#D3D3D3"/>
		<stop  offset="1" style="stop-color:#FFFFFF"/>
	</radialGradient>
	<ellipse class="st0" cx="105.1" cy="129.7" rx="63" ry="6.7"/>
	<g>
		<g>
			<path class="st1" d="M186.4,83.8c-0.5,1.7-1.3,2.1-2.7,2.1h-0.8c-1.3,0-2.1-0.5-2.6-2l-6.9-23.8c-0.2-0.6-0.3-1.1-0.3-1.3
				c0-0.5,0.2-0.8,0.8-0.9c0.6-0.1,1.9-0.2,2.4-0.2c0.6,0,0.9,0.3,1.2,1.3c4.3,15.3,5.2,18.5,6.2,22.7c1.1-3.9,1.9-6.9,6.3-20.3
				c0.6-1.7,1.2-2.3,2.5-2.3h0.6c1.3,0,1.9,0.4,2.5,2.2c4.6,13.6,5.6,16.5,6.7,20.4c1-4,1.8-7.7,5.8-22.6c0.3-1,0.5-1.5,1.2-1.5
				c0.4,0,1.5,0,2.3,0.2c0.4,0.1,0.7,0.4,0.7,0.8c0,0.3-0.2,0.9-0.3,1.6l-6.5,23.5c-0.4,1.3-1.1,2.2-2.6,2.2h-1
				c-1.6,0-2.2-0.7-2.6-2.1c-5.3-15.9-5.9-17.7-6.6-20C192.1,66.1,191.4,68,186.4,83.8z"/>
			<path class="st1" d="M219.9,51.4c-1.5,0-2.6-0.6-2.6-2.7c0-2,1-2.9,2.6-2.9c1.6,0,2.6,0.6,2.6,2.8
				C222.5,50.7,221.6,51.4,219.9,51.4z M220.9,85.8h-1.8c-0.8,0-1.1-0.3-1.1-1.1V59c0-0.7,0.2-1.2,1.1-1.2h1.8
				c0.8,0,1.1,0.4,1.1,1.2v25.8C222,85.4,221.8,85.8,220.9,85.8z"/>
			<path class="st1" d="M235.6,72.7c-4-1.2-6.2-3.5-6.2-7.4c0-5.2,3-8.2,10.2-8.2c2.2,0,5.2,0.2,7.3,0.8c0.8,0.2,1,0.6,1,1.1
				c0,0.3-0.2,1.1-0.5,1.9c-0.1,0.4-0.4,0.6-0.8,0.6c-0.2,0-0.7-0.1-1-0.2c-2.2-0.6-4.5-0.7-6-0.7c-5.3,0-6.2,2.1-6.2,4.4
				c0,1.7,0.6,3.1,4.9,4.4l3.9,1.2c4.5,1.4,6.8,3.1,6.8,7.6c0,4.9-3,8.2-10.5,8.2c-3.1,0-6.8-0.4-8.7-1.3c-0.6-0.2-0.8-0.6-0.8-1
				c0-0.4,0.2-1.1,0.5-1.7c0.2-0.6,0.6-0.8,1-0.8c0.3,0,0.8,0.2,1.2,0.3c2,0.7,4.3,1,7,1c5.8,0,6.5-2.5,6.5-4.5c0-1.8-0.6-2.9-5-4.3
				L235.6,72.7z"/>
			<path class="st1" d="M259.7,72.7c-4-1.2-6.2-3.5-6.2-7.4c0-5.2,3-8.2,10.2-8.2c2.2,0,5.2,0.2,7.3,0.8c0.8,0.2,1,0.6,1,1.1
				c0,0.3-0.2,1.1-0.5,1.9c-0.1,0.4-0.4,0.6-0.8,0.6c-0.2,0-0.7-0.1-1-0.2c-2.2-0.6-4.5-0.7-6-0.7c-5.3,0-6.2,2.1-6.2,4.4
				c0,1.7,0.6,3.1,4.9,4.4l3.9,1.2c4.5,1.4,6.8,3.1,6.8,7.6c0,4.9-3,8.2-10.5,8.2c-3.1,0-6.8-0.4-8.7-1.3c-0.6-0.2-0.8-0.6-0.8-1
				c0-0.4,0.2-1.1,0.5-1.7c0.2-0.6,0.6-0.8,1-0.8c0.3,0,0.8,0.2,1.2,0.3c2,0.7,4.3,1,7,1c5.8,0,6.5-2.5,6.5-4.5c0-1.8-0.6-2.9-5-4.3
				L259.7,72.7z"/>
			<path class="st1" d="M291.1,82.9c2.9,0,4.8-0.3,6.6-0.8c0.6-0.2,1.1-0.3,1.5-0.3c0.4,0,0.6,0.2,0.8,0.6c0.2,0.4,0.4,1.3,0.4,1.7
				c0,0.4-0.2,0.7-0.9,1c-2.5,1-5.7,1.4-8.8,1.4c-9.4,0-12.8-4.4-12.8-14.6c0-10.6,4.4-14.8,12.7-14.8c9.5,0,10.5,5.7,10.5,13.8
				c0,1-0.1,1.4-0.4,1.7c-0.3,0.2-0.6,0.3-1.1,0.3h-17.5C282.1,81.1,285.4,82.9,291.1,82.9z M297.1,69.6c0.1-0.4,0.1-0.8,0.1-1.4
				c0-4.6-1.1-7.6-6.8-7.6c-6.3,0-8.1,3.6-8.2,9H297.1z"/>
			<path class="st1" d="M311.5,85.8h-1.8c-0.8,0-1.1-0.4-1.1-1.1V62.8c0-2,0.7-2.8,1.7-3.2c3.5-1.7,9-2.4,12.5-2.4
				c5.1,0,6.9,1.2,7.8,3.4c0.4,1.3,0.5,3.2,0.5,5.5v18.6c0,0.7-0.2,1.1-1.1,1.1h-1.8c-0.8,0-1.1-0.4-1.1-1.1V66.8
				c0-1.5-0.2-3.1-0.4-3.9c-0.5-1.4-1.6-2.1-5-2.1c-4.1,0-6.6,0.8-7.7,1.3c-0.3,0.2-0.8,0.4-1.1,0.8c-0.2,0.3-0.3,0.8-0.3,1.7v20.1
				C312.6,85.4,312.4,85.8,311.5,85.8z"/>
			<path class="st1" d="M344.7,72.7c-4-1.2-6.2-3.5-6.2-7.4c0-5.2,3-8.2,10.2-8.2c2.2,0,5.2,0.2,7.3,0.8c0.8,0.2,1,0.6,1,1.1
				c0,0.3-0.2,1.1-0.5,1.9c-0.1,0.4-0.4,0.6-0.8,0.6c-0.2,0-0.7-0.1-1-0.2c-2.2-0.6-4.5-0.7-6-0.7c-5.3,0-6.2,2.1-6.2,4.4
				c0,1.7,0.6,3.1,4.9,4.4l3.9,1.2c4.5,1.4,6.8,3.1,6.8,7.6c0,4.9-3,8.2-10.5,8.2c-3.1,0-6.8-0.4-8.7-1.3c-0.6-0.2-0.8-0.6-0.8-1
				c0-0.4,0.2-1.1,0.5-1.7c0.2-0.6,0.6-0.8,1-0.8c0.3,0,0.8,0.2,1.2,0.3c2,0.7,4.3,1,7,1c5.8,0,6.5-2.5,6.5-4.5c0-1.8-0.6-2.9-5-4.3
				L344.7,72.7z"/>
			<path class="st1" d="M375,82.9c2.6,0,4.4-0.2,6.2-0.7c0.6-0.1,1.1-0.3,1.5-0.3c0.4,0,0.6,0.2,0.7,0.6c0.2,0.4,0.4,1.3,0.4,1.7
				c0,0.6-0.2,0.9-0.8,1.1c-2.6,0.9-5.4,1.2-8.1,1.2c-7.4,0-11.7-3.4-11.7-14.2c0-10.4,3.4-15.2,12.8-15.2c2.5,0,4.8,0.3,6.4,0.7
				c0.7,0.2,1,0.6,1,1.1c0,0.3-0.2,1.5-0.4,1.9c-0.2,0.5-0.4,0.7-0.8,0.7c-0.3,0-1-0.1-1.5-0.3c-1.1-0.2-2.6-0.4-4.8-0.4
				c-7.7,0-8.6,5-8.6,11C367.1,78.3,368.2,82.9,375,82.9z"/>
			<path class="st1" d="M393.3,85.8h-1.8c-0.8,0-1.1-0.4-1.1-1.1V44.9c0-0.7,0.2-1.2,1-1.2h2c0.8,0,1,0.3,1,1.2v14.6
				c2.2-1.7,7.3-2.3,10.3-2.3c5.1,0,6.9,1.2,7.7,3.4c0.4,1.3,0.5,3.2,0.5,5.5v18.6c0,0.7-0.2,1.1-1.1,1.1H410
				c-0.8,0-1.1-0.4-1.1-1.1V66.8c0-1.5-0.2-3.1-0.4-3.8c-0.5-1.5-1.6-2.2-5-2.2c-3.8,0-6.5,0.7-7.8,1.4c-0.5,0.3-0.7,0.4-1,0.8
				c-0.2,0.3-0.3,0.8-0.3,1.7v19.9C394.4,85.4,394.2,85.8,393.3,85.8z"/>
			<path class="st1" d="M442,83.4c-0.3,0.5-0.8,1-1.5,1.3c-2.1,1.1-6.2,1.8-10.2,1.8c-8.1,0-9.7-4.2-9.7-8.9c0-3.4,1.1-5.3,3.2-6.6
				c1.9-1.1,5-1.6,8.6-1.6c1.9,0,4.7,0.1,6.2,0.3v-2.7c0-1.4-0.1-3-0.4-3.9c-0.5-1.3-1.6-2.4-5.9-2.4c-2,0-4.1,0.3-6,0.7
				c-0.7,0.2-1.8,0.4-2.2,0.4c-0.4,0-0.7-0.3-0.8-0.7c-0.2-0.6-0.3-1.5-0.3-1.7c0-0.6,0.3-0.9,0.9-1.1c2.8-0.8,6.1-1.3,9.2-1.3
				c4.2,0,6.5,0.6,7.9,2c1.5,1.5,1.8,3.7,1.8,7.3V81C442.5,81.9,442.4,82.8,442,83.4z M432.8,72.6c-3.4,0-5.5,0.3-6.8,1.2
				c-1,0.7-1.5,1.8-1.5,3.7c0,3.2,1.1,5.6,6.4,5.6c2.8,0,5-0.4,6.3-1c0.6-0.2,1-0.6,1.1-1c0.2-0.5,0.3-1.2,0.3-1.9v-6.4
				C437.2,72.7,434.8,72.6,432.8,72.6z"/>
			<path class="st1" d="M456.4,85.8h-1.9c-0.7,0-1.1-0.3-1.1-1.2V61.4h-3.6c-0.7,0-1-0.3-1-1V59c0-0.7,0.3-1.1,1.1-1.1h3.5v-3.2
				c0-4.1,0.8-6.3,2.2-7.8c2.1-2.2,5.4-3.1,9.6-3.1c0.8,0,1.3,0.3,1.4,0.9c0.1,0.5,0.1,1.2,0.1,1.6c0,0.7-0.3,1-1,1.1
				c-4.1,0.3-6.3,0.7-7.4,2.6c-0.5,0.8-0.8,2.1-0.8,4.9v3.1h6.4c0.7,0,1,0.4,1,1v1.6c0,0.6-0.2,1-1,1h-6.4v23.3
				C457.5,85.6,457,85.8,456.4,85.8z"/>
			<path class="st1" d="M476.3,80.5c0.9,1.5,2.7,2,6.3,2.2c0.7,0.1,1,0.3,1,1c0,0.4-0.1,1.2-0.1,1.7c-0.1,0.6-0.4,0.8-1.2,0.8
				c-4.6,0-7.2-0.6-9.1-2.7c-1.3-1.7-1.8-4-1.8-8.3V61.4h-3.6c-0.5,0-1-0.3-1-1V59c0-0.6,0.3-1.1,1.1-1.1h3.6c0,0,0-1.7,0.2-6.4
				c0.1-0.7,0.3-1.2,1-1.2h1.9c0.7,0,1,0.4,1,1.2v6.4h6.3c0.7,0,1.2,0.3,1.2,1.1v1.5c0,0.8-0.5,1.1-1.2,1.1h-6.3v13.9
				C475.4,78.2,475.7,79.6,476.3,80.5z"/>
		</g>
		<g>
			<path class="st1" d="M182,115.2h-0.8c-0.3,0-0.4-0.1-0.4-0.4v-14c0-0.3,0.1-0.4,0.4-0.4h0.8c0.3,0,0.4,0.2,0.4,0.4v6h7.4v-6
				c0-0.3,0.1-0.4,0.4-0.4h0.8c0.3,0,0.4,0.2,0.4,0.4v14c0,0.3-0.1,0.4-0.4,0.4h-0.7c-0.3,0-0.4-0.1-0.4-0.4v-6.6h-7.4v6.6
				C182.4,115,182.3,115.2,182,115.2z"/>
			<path class="st1" d="M199.6,114.1c1.1,0,1.8-0.1,2.5-0.3c0.2-0.1,0.4-0.1,0.5-0.1s0.2,0.1,0.3,0.2c0.1,0.2,0.2,0.5,0.2,0.7
				s-0.1,0.3-0.3,0.4c-0.9,0.4-2.1,0.5-3.3,0.5c-3.5,0-4.8-1.7-4.8-5.5c0-4,1.7-5.5,4.7-5.5c3.6,0,3.9,2.1,3.9,5.2
				c0,0.4,0,0.5-0.1,0.6c-0.1,0.1-0.2,0.1-0.4,0.1h-6.6C196.2,113.4,197.4,114.1,199.6,114.1z M201.8,109.1c0-0.2,0-0.3,0-0.5
				c0-1.7-0.4-2.9-2.6-2.9c-2.4,0-3,1.3-3.1,3.4H201.8z"/>
			<path class="st1" d="M206.9,102.3c-0.5,0-1-0.2-1-1c0-0.8,0.4-1.1,1-1.1c0.6,0,1,0.2,1,1C207.9,102,207.5,102.3,206.9,102.3z
				 M207.2,115.2h-0.7c-0.3,0-0.4-0.1-0.4-0.4v-9.7c0-0.3,0.1-0.5,0.4-0.5h0.7c0.3,0,0.4,0.2,0.4,0.4v9.7
				C207.6,115,207.6,115.2,207.2,115.2z"/>
			<path class="st1" d="M212.3,115.2h-0.7c-0.3,0-0.4-0.1-0.4-0.4v-8.2c0-0.7,0.3-1,0.7-1.2c1.3-0.6,3.4-0.9,4.7-0.9
				c1.9,0,2.6,0.5,2.9,1.3c0.2,0.5,0.2,1.2,0.2,2.1v7c0,0.3-0.1,0.4-0.4,0.4h-0.7c-0.3,0-0.4-0.1-0.4-0.4v-6.7
				c0-0.6-0.1-1.2-0.1-1.4c-0.2-0.5-0.6-0.8-1.9-0.8c-1.5,0-2.5,0.3-2.9,0.5c-0.1,0.1-0.3,0.2-0.4,0.3c-0.1,0.1-0.1,0.3-0.1,0.6v7.5
				C212.7,115,212.6,115.2,212.3,115.2z"/>
			<path class="st1" d="M223.1,115.2c-0.6,0-1-0.2-1-0.9c0-0.4,0.2-0.8,0.4-1.1c4.9-5.5,5.7-6.4,6.4-7.1h-6.1
				c-0.3,0-0.4-0.1-0.4-0.4v-0.6c0-0.3,0.1-0.4,0.4-0.4h6.6c0.8,0,1.1,0.3,1.1,1c0,0.5-0.2,0.8-0.4,1.1c-4.5,5-5.3,5.8-6.4,7h6.6
				c0.3,0,0.4,0.1,0.4,0.4v0.7c0,0.1-0.1,0.3-0.4,0.3H223.1z"/>
			<path class="st1" d="M242.6,115.2h-0.8c-0.3,0-0.4-0.2-0.4-0.4v-13h-4.2c-0.3,0-0.4-0.1-0.4-0.4v-0.7c0-0.3,0.2-0.4,0.4-0.4h10.1
				c0.3,0,0.4,0.1,0.4,0.4v0.7c0,0.3-0.2,0.4-0.4,0.4H243v13C243,115.1,242.8,115.2,242.6,115.2z"/>
			<path class="st1" d="M249.8,115.2h-0.7c-0.3,0-0.4-0.1-0.4-0.4v-8.1c0-0.7,0.1-0.9,0.5-1.2c0.5-0.5,2.3-1,3.7-1
				c0.4,0,0.8,0,1,0.1c0.2,0,0.3,0.1,0.3,0.3c0,0.2,0,0.5-0.1,0.8c0,0.2-0.2,0.3-0.4,0.3c-0.1,0-0.7,0-0.9,0c-0.9,0-1.8,0.2-2.2,0.5
				c-0.1,0.1-0.3,0.2-0.4,0.3c-0.1,0.1-0.1,0.3-0.1,0.6v7.5C250.2,115,250.1,115.2,249.8,115.2z"/>
			<path class="st1" d="M259.9,115.4c-3.1,0-4.5-1.1-4.5-5.5c0-4.6,1.9-5.5,4.7-5.5c3.1,0,4.5,0.7,4.5,5.4
				C264.6,114.3,263.1,115.4,259.9,115.4z M260,105.8c-2,0-3.1,0.7-3.1,4.1c0,3.6,0.9,4.2,3,4.2c2,0,3.1-0.5,3.1-4.2
				C263,106.4,262.2,105.8,260,105.8z"/>
			<path class="st1" d="M267.8,114.8c-0.2,0.3-0.3,0.4-0.6,0.4c-0.2,0-0.7,0-0.9,0c-0.2,0-0.2-0.2-0.2-0.3c0-0.1,0.1-0.3,0.3-0.5
				l3.4-4.6l-3.2-4.3c-0.2-0.2-0.3-0.4-0.3-0.5c0-0.1,0.1-0.2,0.2-0.2c0.2,0,0.7-0.1,1-0.1c0.3,0,0.4,0.1,0.6,0.5
				c1.6,2.1,2.1,2.9,2.6,3.7c0.5-0.7,1.1-1.6,2.7-3.7c0.3-0.3,0.4-0.4,0.6-0.4c0.3,0,0.8,0,0.9,0.1c0.1,0,0.2,0.1,0.2,0.3
				c0,0.1-0.1,0.3-0.3,0.5l-3.2,4.3l3.5,4.6c0.2,0.2,0.2,0.4,0.2,0.5c0,0.1-0.1,0.2-0.2,0.3c-0.1,0-0.7,0.1-0.9,0.1
				c-0.3,0-0.5-0.1-0.6-0.4c-1.9-2.5-2.4-3.2-3-4.1C270.1,111.6,269.7,112.3,267.8,114.8z"/>
			<path class="st1" d="M286.7,114.4c-0.2,0.6-0.5,0.8-1.1,0.8h-0.4c-0.5,0-0.9-0.3-1-0.8l-3.2-13.2c-0.1-0.3-0.1-0.4-0.1-0.6
				c0-0.2,0.1-0.3,0.3-0.3s0.7-0.1,0.9-0.1c0.3,0,0.4,0.1,0.5,0.4c2.2,9.3,2.6,10.9,3,12.7c0.4-1.7,0.9-3.1,3.5-11.7
				c0.2-0.5,0.4-0.8,0.9-0.8h0.4c0.6,0,0.8,0.3,0.9,0.8c2.6,8.7,3,10.1,3.4,11.8c0.3-1.7,0.8-3.4,3-12.6c0.1-0.4,0.2-0.5,0.5-0.5
				c0.3,0,0.8,0,0.9,0.1c0.1,0,0.2,0.2,0.2,0.3c0,0.2,0,0.3-0.1,0.6l-3.3,13.1c-0.1,0.5-0.4,0.8-1,0.8h-0.4c-0.7,0-0.9-0.3-1.1-0.8
				c-2.3-7.9-2.8-9.7-3.3-11.7C289.6,104.7,289.1,106.6,286.7,114.4z"/>
			<path class="st1" d="M302.2,102.3c-0.5,0-1-0.2-1-1c0-0.8,0.4-1.1,1-1.1c0.6,0,1,0.2,1,1C303.2,102,302.9,102.3,302.2,102.3z
				 M302.6,115.2h-0.7c-0.3,0-0.4-0.1-0.4-0.4v-9.7c0-0.3,0.1-0.5,0.4-0.5h0.7c0.3,0,0.4,0.2,0.4,0.4v9.7
				C303,115,302.9,115.2,302.6,115.2z"/>
			<path class="st1" d="M308.1,110.3c-1.5-0.4-2.3-1.3-2.3-2.8c0-1.9,1.1-3.1,3.8-3.1c0.8,0,1.9,0.1,2.7,0.3
				c0.3,0.1,0.4,0.2,0.4,0.4c0,0.1-0.1,0.4-0.2,0.7c0,0.1-0.2,0.2-0.3,0.2c-0.1,0-0.3,0-0.4-0.1c-0.8-0.2-1.7-0.3-2.3-0.3
				c-2,0-2.3,0.8-2.3,1.6c0,0.6,0.2,1.2,1.8,1.7l1.5,0.5c1.7,0.5,2.5,1.2,2.5,2.8c0,1.8-1.1,3.1-3.9,3.1c-1.2,0-2.5-0.2-3.3-0.5
				c-0.2-0.1-0.3-0.2-0.3-0.4c0-0.1,0.1-0.4,0.2-0.7c0.1-0.2,0.2-0.3,0.4-0.3c0.1,0,0.3,0.1,0.4,0.1c0.8,0.3,1.6,0.4,2.6,0.4
				c2.2,0,2.4-0.9,2.4-1.7c0-0.7-0.2-1.1-1.9-1.6L308.1,110.3z"/>
			<path class="st1" d="M317.2,110.3c-1.5-0.4-2.3-1.3-2.3-2.8c0-1.9,1.1-3.1,3.8-3.1c0.8,0,1.9,0.1,2.7,0.3
				c0.3,0.1,0.4,0.2,0.4,0.4c0,0.1-0.1,0.4-0.2,0.7c0,0.1-0.2,0.2-0.3,0.2c-0.1,0-0.3,0-0.4-0.1c-0.8-0.2-1.7-0.3-2.3-0.3
				c-2,0-2.3,0.8-2.3,1.6c0,0.6,0.2,1.2,1.8,1.7l1.5,0.5c1.7,0.5,2.5,1.2,2.5,2.8c0,1.8-1.1,3.1-3.9,3.1c-1.2,0-2.5-0.2-3.3-0.5
				c-0.2-0.1-0.3-0.2-0.3-0.4c0-0.1,0.1-0.4,0.2-0.7c0.1-0.2,0.2-0.3,0.4-0.3c0.1,0,0.3,0.1,0.4,0.1c0.8,0.3,1.6,0.4,2.6,0.4
				c2.2,0,2.4-0.9,2.4-1.7c0-0.7-0.2-1.1-1.9-1.6L317.2,110.3z"/>
			<path class="st1" d="M328.9,114.1c1.1,0,1.8-0.1,2.5-0.3c0.2-0.1,0.4-0.1,0.5-0.1c0.1,0,0.2,0.1,0.3,0.2c0.1,0.2,0.2,0.5,0.2,0.7
				s-0.1,0.3-0.3,0.4c-0.9,0.4-2.1,0.5-3.3,0.5c-3.5,0-4.8-1.7-4.8-5.5c0-4,1.7-5.5,4.7-5.5c3.6,0,3.9,2.1,3.9,5.2
				c0,0.4,0,0.5-0.1,0.6c-0.1,0.1-0.2,0.1-0.4,0.1h-6.6C325.6,113.4,326.8,114.1,328.9,114.1z M331.2,109.1c0-0.2,0-0.3,0-0.5
				c0-1.7-0.4-2.9-2.6-2.9c-2.4,0-3,1.3-3.1,3.4H331.2z"/>
			<path class="st1" d="M336.6,115.2h-0.7c-0.3,0-0.4-0.1-0.4-0.4v-8.2c0-0.7,0.3-1,0.7-1.2c1.3-0.6,3.4-0.9,4.7-0.9
				c1.9,0,2.6,0.5,2.9,1.3c0.2,0.5,0.2,1.2,0.2,2.1v7c0,0.3-0.1,0.4-0.4,0.4h-0.7c-0.3,0-0.4-0.1-0.4-0.4v-6.7
				c0-0.6-0.1-1.2-0.1-1.4c-0.2-0.5-0.6-0.8-1.9-0.8c-1.5,0-2.5,0.3-2.9,0.5c-0.1,0.1-0.3,0.2-0.4,0.3c-0.1,0.1-0.1,0.3-0.1,0.6v7.5
				C337,115,336.9,115.2,336.6,115.2z"/>
			<path class="st1" d="M349,110.3c-1.5-0.4-2.3-1.3-2.3-2.8c0-1.9,1.1-3.1,3.8-3.1c0.8,0,1.9,0.1,2.7,0.3c0.3,0.1,0.4,0.2,0.4,0.4
				c0,0.1-0.1,0.4-0.2,0.7c0,0.1-0.2,0.2-0.3,0.2c-0.1,0-0.3,0-0.4-0.1c-0.8-0.2-1.7-0.3-2.3-0.3c-2,0-2.3,0.8-2.3,1.6
				c0,0.6,0.2,1.2,1.8,1.7l1.5,0.5c1.7,0.5,2.5,1.2,2.5,2.8c0,1.8-1.1,3.1-3.9,3.1c-1.2,0-2.5-0.2-3.3-0.5c-0.2-0.1-0.3-0.2-0.3-0.4
				c0-0.1,0.1-0.4,0.2-0.7c0.1-0.2,0.2-0.3,0.4-0.3c0.1,0,0.3,0.1,0.4,0.1c0.8,0.3,1.6,0.4,2.6,0.4c2.2,0,2.4-0.9,2.4-1.7
				c0-0.7-0.2-1.1-1.9-1.6L349,110.3z"/>
			<path class="st1" d="M360.4,114.1c1,0,1.7-0.1,2.3-0.3c0.2,0,0.4-0.1,0.5-0.1s0.2,0.1,0.3,0.2c0.1,0.2,0.1,0.5,0.1,0.6
				c0,0.2-0.1,0.3-0.3,0.4c-1,0.3-2,0.4-3,0.4c-2.8,0-4.4-1.3-4.4-5.3c0-3.9,1.3-5.7,4.8-5.7c0.9,0,1.8,0.1,2.4,0.3
				c0.3,0.1,0.4,0.2,0.4,0.4c0,0.1-0.1,0.5-0.1,0.7c-0.1,0.2-0.2,0.3-0.3,0.3c-0.1,0-0.4,0-0.6-0.1c-0.4-0.1-1-0.2-1.8-0.2
				c-2.9,0-3.2,1.9-3.2,4.1C357.4,112.4,357.9,114.1,360.4,114.1z"/>
			<path class="st1" d="M367.3,115.2h-0.7c-0.3,0-0.4-0.1-0.4-0.4V99.9c0-0.3,0.1-0.5,0.4-0.5h0.7c0.3,0,0.4,0.1,0.4,0.5v5.5
				c0.8-0.6,2.7-0.9,3.9-0.9c1.9,0,2.6,0.5,2.9,1.3c0.2,0.5,0.2,1.2,0.2,2.1v7c0,0.3-0.1,0.4-0.4,0.4h-0.7c-0.3,0-0.4-0.1-0.4-0.4
				v-6.7c0-0.6-0.1-1.2-0.1-1.4c-0.2-0.5-0.6-0.8-1.9-0.8c-1.4,0-2.4,0.3-2.9,0.5c-0.2,0.1-0.3,0.2-0.4,0.3
				c-0.1,0.1-0.1,0.3-0.1,0.7v7.5C367.7,115,367.6,115.2,367.3,115.2z"/>
			<path class="st1" d="M385.5,114.3c-0.1,0.2-0.3,0.4-0.6,0.5c-0.8,0.4-2.3,0.7-3.8,0.7c-3,0-3.7-1.6-3.7-3.3c0-1.3,0.4-2,1.2-2.5
				c0.7-0.4,1.9-0.6,3.2-0.6c0.7,0,1.8,0,2.3,0.1v-1c0-0.5,0-1.1-0.2-1.4c-0.2-0.5-0.6-0.9-2.2-0.9c-0.8,0-1.6,0.1-2.3,0.3
				c-0.3,0.1-0.7,0.2-0.8,0.2c-0.2,0-0.3-0.1-0.3-0.3c-0.1-0.2-0.1-0.5-0.1-0.7c0-0.2,0.1-0.3,0.3-0.4c1-0.3,2.3-0.5,3.4-0.5
				c1.6,0,2.4,0.2,3,0.8c0.5,0.5,0.7,1.4,0.7,2.7v5.5C385.7,113.7,385.7,114.1,385.5,114.3z M382.1,110.3c-1.3,0-2.1,0.1-2.6,0.4
				c-0.4,0.3-0.6,0.7-0.6,1.4c0,1.2,0.4,2.1,2.4,2.1c1.1,0,1.9-0.2,2.4-0.4c0.2-0.1,0.4-0.2,0.4-0.4c0.1-0.2,0.1-0.4,0.1-0.7v-2.4
				C383.7,110.3,382.8,110.3,382.1,110.3z"/>
			<path class="st1" d="M390.9,115.2h-0.7c-0.3,0-0.4-0.1-0.4-0.4v-8.7h-1.3c-0.3,0-0.4-0.1-0.4-0.4v-0.5c0-0.3,0.1-0.4,0.4-0.4h1.3
				v-1.2c0-1.6,0.3-2.4,0.8-2.9c0.8-0.8,2-1.2,3.6-1.2c0.3,0,0.5,0.1,0.5,0.3c0,0.2,0,0.5,0,0.6c0,0.3-0.1,0.4-0.4,0.4
				c-1.5,0.1-2.4,0.3-2.8,1c-0.2,0.3-0.3,0.8-0.3,1.8v1.2h2.4c0.3,0,0.4,0.1,0.4,0.4v0.6c0,0.2-0.1,0.4-0.4,0.4h-2.4v8.7
				C391.3,115.1,391.1,115.2,390.9,115.2z"/>
			<path class="st1" d="M398.4,113.2c0.3,0.5,1,0.8,2.4,0.8c0.3,0,0.4,0.1,0.4,0.4c0,0.2,0,0.4,0,0.6c0,0.2-0.1,0.3-0.4,0.3
				c-1.7,0-2.7-0.2-3.4-1c-0.5-0.6-0.7-1.5-0.7-3.1v-5.1h-1.4c-0.2,0-0.4-0.1-0.4-0.4v-0.5c0-0.2,0.1-0.4,0.4-0.4h1.3
				c0,0,0-0.7,0.1-2.4c0-0.3,0.1-0.5,0.4-0.5h0.7c0.3,0,0.4,0.1,0.4,0.5v2.4h2.4c0.3,0,0.4,0.1,0.4,0.4v0.5c0,0.3-0.2,0.4-0.4,0.4
				H398v5.2C398,112.3,398.2,112.9,398.4,113.2z"/>
			<path class="st1" d="M404.8,110.3c-1.5-0.4-2.3-1.3-2.3-2.8c0-1.9,1.1-3.1,3.8-3.1c0.8,0,1.9,0.1,2.7,0.3
				c0.3,0.1,0.4,0.2,0.4,0.4c0,0.1-0.1,0.4-0.2,0.7c0,0.1-0.2,0.2-0.3,0.2c-0.1,0-0.3,0-0.4-0.1c-0.8-0.2-1.7-0.3-2.3-0.3
				c-2,0-2.3,0.8-2.3,1.6c0,0.6,0.2,1.2,1.8,1.7l1.5,0.5c1.7,0.5,2.5,1.2,2.5,2.8c0,1.8-1.1,3.1-3.9,3.1c-1.2,0-2.5-0.2-3.3-0.5
				c-0.2-0.1-0.3-0.2-0.3-0.4c0-0.1,0.1-0.4,0.2-0.7c0.1-0.2,0.2-0.3,0.4-0.3c0.1,0,0.3,0.1,0.4,0.1c0.8,0.3,1.6,0.4,2.6,0.4
				c2.2,0,2.4-0.9,2.4-1.7c0-0.7-0.2-1.1-1.9-1.6L404.8,110.3z"/>
			<path class="st1" d="M420.6,115.4c-2.9,0-4.2-1.3-4.2-5.2c0-4.4,1.5-5.7,4.9-5.7c1.1,0,2.3,0.1,3.3,0.4c0.4,0.1,0.6,0.3,0.6,0.9
				v9.1c0,1-0.1,1.8-0.3,2.6c-0.6,1.9-3,2.7-6.5,2.7c-0.3,0-0.5-0.1-0.5-0.3c0-0.2,0-0.5,0-0.6c0-0.3,0.1-0.4,0.4-0.4
				c3.6-0.1,4.6-0.7,5.1-1.6c0.3-0.5,0.3-1.1,0.3-1.8v-0.5C423,115.3,421.9,115.4,420.6,115.4z M423.7,106.7c0-0.4-0.1-0.5-0.4-0.6
				c-0.5-0.2-1.3-0.2-2.1-0.2c-2.8,0-3.3,1.3-3.3,4.3c0,2.7,0.6,4,2.8,4c0.9,0,1.8-0.1,2.5-0.4c0.2-0.1,0.4-0.2,0.4-0.4
				c0-0.1,0.1-0.3,0.1-0.5V106.7z"/>
			<path class="st1" d="M439.3,114.3c-0.1,0.2-0.3,0.3-0.5,0.4c-0.8,0.3-2.5,0.7-4.7,0.7c-3.8,0-5.9-1.7-5.9-7.5
				c0-5.5,1.6-7.9,6.5-7.9c1.4,0,2.7,0.1,3.5,0.3c0.4,0.1,0.5,0.2,0.5,0.4c0,0.2-0.1,0.5-0.2,0.8c0,0.1-0.1,0.2-0.3,0.2
				c-0.2,0-0.4,0-0.7-0.1c-0.6-0.1-1.6-0.3-3.1-0.3c-4,0-4.6,2.8-4.6,6.2s0.4,6.4,4.3,6.4c1.6,0,2.5-0.2,3.3-0.4
				c0.4-0.1,0.5-0.3,0.5-0.7v-4.2h-3.3c-0.3,0-0.4-0.1-0.4-0.4v-0.7c0-0.3,0.1-0.4,0.4-0.4h4.3c0.3,0,0.4,0.1,0.4,0.5v5.7
				C439.4,113.9,439.4,114.1,439.3,114.3z"/>
			<path class="st1" d="M443.7,115.2h-0.7c-0.3,0-0.4-0.1-0.4-0.4v-8.2c0-0.7,0.3-1,0.6-1.2c1.4-0.6,3.2-0.9,4.5-0.9
				c1.6,0,2.2,0.5,2.6,1c0.9-0.7,2.5-1,4.2-1c1.8,0,2.5,0.5,2.8,1.3c0.2,0.5,0.2,1.2,0.2,2.1v7c0,0.3-0.1,0.4-0.4,0.4h-0.7
				c-0.3,0-0.4-0.1-0.4-0.4v-6.7c0-0.6,0-1.2-0.1-1.4c-0.2-0.5-0.5-0.8-1.8-0.8c-1.4,0-2.3,0.4-2.7,0.5c-0.1,0-0.3,0.2-0.4,0.3
				c-0.1,0.1-0.1,0.3-0.1,0.5c0,0.1,0,0.7,0,0.8v6.8c0,0.3-0.1,0.4-0.4,0.4h-0.7c-0.3,0-0.4-0.1-0.4-0.4V108c0-0.5,0-1.1-0.1-1.4
				c-0.2-0.5-0.5-0.8-1.8-0.8c-1.5,0-2.3,0.3-2.7,0.5c-0.1,0.1-0.3,0.2-0.4,0.3c-0.1,0.1-0.1,0.3-0.1,0.7v7.5
				C444.1,115,444.1,115.2,443.7,115.2z"/>
			<path class="st1" d="M461.1,99.9c0-0.3,0.1-0.4,0.4-0.4h0.7c0.3,0,0.4,0.1,0.4,0.4v5.5c0.8-0.6,2.2-0.9,3.7-0.9
				c2.5,0,3.7,1.5,3.7,5.4c0,4.6-1.6,5.6-5,5.6c-1.1,0-2.3-0.2-3-0.4c-0.3-0.1-0.6-0.3-0.7-0.5c-0.1-0.2-0.1-0.5-0.1-0.9V99.9z
				 M462.7,113.6c0.1,0.1,0.3,0.2,0.5,0.3c0.5,0.1,1.3,0.2,1.8,0.2c2.9,0,3.4-1.1,3.4-4.2c0-2.7-0.3-4.1-2.6-4.1
				c-0.8,0-2.1,0.1-2.8,0.6c-0.1,0.1-0.3,0.2-0.3,0.3c0,0.1-0.1,0.3-0.1,0.5v5.9C462.5,113.3,462.6,113.5,462.7,113.6z"/>
			<path class="st1" d="M474.3,115.2h-0.8c-0.3,0-0.4-0.1-0.4-0.4v-14c0-0.3,0.1-0.4,0.4-0.4h0.8c0.3,0,0.4,0.2,0.4,0.4v6h7.4v-6
				c0-0.3,0.1-0.4,0.4-0.4h0.8c0.3,0,0.4,0.2,0.4,0.4v14c0,0.3-0.1,0.4-0.4,0.4h-0.7c-0.3,0-0.4-0.1-0.4-0.4v-6.6h-7.4v6.6
				C474.7,115,474.6,115.2,474.3,115.2z"/>
		</g>
		<g>
			<path class="st1" d="M81.1,47.6v5l-34-5.3v77l50.7-11.7v-4.2l60.9,7.3V30.2L81.1,47.6z M50.4,120.3c0,0.4-0.1,0.8-0.1,1.2
				c-0.8,0.1-1.5,0.1-1.5,0c0-1.1,0-2.5,0-4.1c0-1.6,0-3.4,0.1-5.3c0.1-1.7,0.1-3.6,0.2-5.5V49.6l20.1,3.3l11.9,1.8v4.9
				c-0.8,0.5-1.7,1.1-2.5,1.6c-2.1,1.4-4.3,3-6.4,4.8c-1.1,0.9-2.1,1.9-3.2,2.8c-1,1-2.1,2-3.1,3.1c-2,2.1-3.8,4.5-5.5,7
				c-1.7,2.5-3.1,5.1-4.3,7.8c-1.2,2.7-2.1,5.4-2.8,8.2c-1.4,5.4-1.9,10.6-2.2,14.9C50.7,114.1,50.5,117.8,50.4,120.3z M53.2,120.8
				l-1,0.2c0,0-0.1,0.1-0.2,0.1c0-0.2,0.1-0.4,0.1-0.7c0.3-2.5,0.6-6.2,1.2-10.5c0.5-4.3,1.3-9.3,2.8-14.3c0.8-2.5,1.8-5.1,2.9-7.6
				c1.2-2.5,2.6-4.9,4.2-7.2c1.6-2.3,3.4-4.5,5.3-6.5c0.9-1,2-1.9,2.9-2.9c1-0.9,2-1.8,3-2.7c2-1.7,4.1-3.3,6-4.8
				c0.2-0.1,0.3-0.2,0.5-0.4v20.6c-1.4,0.8-2.9,1.7-4.2,2.6c-7.3,4.7-13.3,10.4-17.1,16.4c-1.9,2.9-3.2,5.9-4.2,8.6
				c-0.9,2.7-1.5,5-1.9,7C53.5,119.5,53.3,120.2,53.2,120.8z M95.8,111l-40.9,9.4c0.1-0.4,0.3-0.8,0.4-1.3c0.6-1.9,1.3-4.2,2.3-6.6
				c1-2.5,2.5-5.1,4.4-7.8c1.9-2.7,4.3-5.3,7.2-7.7c2.9-2.4,6.1-4.8,9.7-7c0.7-0.4,1.5-0.9,2.2-1.3v17.6l14.7,1.8V111z M156.2,78.2
				l-5.1-6.7l5.1-6.8V78.2z M156.2,58.3c-0.1,0.1-0.3,0.3-0.5,0.6c-4.2,5.6-5.9,8-7.2,9.9c-1.4-2-2.9-4.1-7.1-9.7
				c-0.7-1-1-1.3-1.7-1.3c-0.8,0-2.3,0.1-2.7,0.2c-0.3,0.1-0.6,0.3-0.6,0.6c0,0.4,0.3,0.8,0.7,1.4l8.5,11.5l-9.2,12.2
				c-0.4,0.6-0.7,1-0.7,1.3c0,0.3,0.1,0.6,0.6,0.7c0.4,0.1,1.7,0.1,2.4,0.1c0.7,0,1-0.2,1.6-1c5-6.7,6.3-8.6,7.9-10.8
				c1.6,2.2,2.9,4.1,7.9,10.8v27.9l-72.6-8.7V49.6l4.6-1v36.2c0,0.7,0.3,1.1,1.1,1.1h1.8c0.8,0,1.1-0.4,1.1-1.1V64.8
				c0-0.9,0.1-1.4,0.3-1.7c0.3-0.4,0.5-0.6,1-0.8c1.3-0.7,4-1.4,7.8-1.4c3.4,0,4.5,0.7,5,2.2c0.2,0.7,0.4,2.3,0.4,3.8v17.9
				c0,0.7,0.3,1.1,1.1,1.1h1.8c0.9,0,1.1-0.4,1.1-1.1V66.1c0-2.2-0.1-4.2-0.5-5.5c-0.8-2.2-2.6-3.4-7.7-3.4c-3,0-8.1,0.6-10.3,2.3
				V47.7l64.1-14.4V58.3z"/>
			<path class="st1" d="M117.9,61.5h3.6v13.7c0,4.3,0.4,6.6,1.8,8.3c1.8,2.2,4.5,2.7,9.1,2.7c0.8,0,1.1-0.2,1.2-0.8
				c0.1-0.5,0.1-1.2,0.1-1.7c0-0.7-0.3-1-1-1c-3.5-0.2-5.4-0.7-6.3-2.2c-0.6-0.9-0.9-2.3-0.9-5.1V61.5h6.3c0.7,0,1.2-0.3,1.2-1.1
				v-1.5c0-0.7-0.4-1.1-1.2-1.1h-6.3v-6.4c0-0.8-0.3-1.2-1-1.2h-1.9c-0.6,0-0.9,0.5-1,1.2c-0.2,4.6-0.2,6.4-0.2,6.4H118
				c-0.7,0-1.1,0.5-1.1,1.1v1.5C116.9,61.2,117.4,61.5,117.9,61.5z"/>
		</g>
	</g>
</g>
<g id="Ebene_2" class="st2">
	<path class="st3" d="M440,564c15.7-35-2.5-100.5,274-155"/>
	<path class="st3" d="M439,564c12.8-35.7-1.5-111.5,275-166"/>
	<path class="st3" d="M438,564c11.7-41-5-122.7,276-182"/>
	<path class="st3" d="M437,562.7c11-61.3,5-122.3,199.7-182.7"/>
	<path class="st3" d="M437,562.7c6.5-53.9-5.7-123.3,109.6-181.9"/>
	<path class="st3" d="M437,562.7c2-54.3,3-135.7,56.3-181.9"/>
	<polyline class="st3" points="437,380 437,563.7 714,563.7 	"/>
</g>
<g id="Ebene_3">
	<g>
	</g>
	<g>
	</g>
	<g>
	</g>
	<g>
	</g>
	<g>
	</g>
	<g>
	</g>
</g>
</svg>
